<svg width="22" height="15" viewBox="0 0 22 15" fill="none" xmlns="http://www.w3.org/2000/svg">
<path d="M19.5604 2.53273C18.0984 1.36471 16.1397 0.694824 14.1866 0.694824C12.046 0.694824 10.2988 1.53933 8.84542 3.2766C8.14464 4.11423 7.56731 5.09899 7.06144 6.10339C4.25502 6.20355 2.57048 7.34145 1.64033 8.30296C0.507246 9.47433 0 10.8947 0 11.7827C0 12.4069 0.0657422 13.1097 0.553566 13.5893C1.04474 14.0722 1.77147 14.1373 2.41755 14.1373C2.41845 14.1373 2.41931 14.1373 2.42026 14.1373C2.51823 14.1373 2.61491 14.1329 2.71047 14.1242C3.50402 14.0566 4.50162 13.7388 5.55079 13.4046C6.75937 13.0195 8.00912 12.6214 8.89251 12.6214C10.3175 12.6214 11.2048 12.8281 12.1443 13.0469C13.0357 13.2546 13.9575 13.4693 15.2916 13.4693C16.2541 13.4693 18.1028 13.3028 19.6704 12.1872C21.1944 11.1028 22 9.41293 22 7.3005C22 5.48279 21.1336 3.78956 19.5604 2.53273ZM2.45334 12.8479C2.44316 12.8481 2.43345 12.8499 2.42301 12.8483C2.42215 12.8482 2.42146 12.8482 2.4206 12.8483C2.41957 12.8483 2.41854 12.8483 2.41755 12.8483C1.77371 12.8483 1.54 12.7514 1.45729 12.6701C1.34565 12.5603 1.28906 12.2618 1.28906 11.7827C1.28906 11.2751 1.62937 10.1683 2.56687 9.19916C3.25398 8.48893 4.45595 7.66156 6.42542 7.44139C6.29264 7.73375 6.164 8.02297 6.03818 8.30579C4.96207 10.7249 4.03154 12.8167 2.45334 12.8479ZM15.2916 12.1803C14.1056 12.1803 13.295 11.9915 12.4367 11.7915C11.4677 11.5658 10.4656 11.3323 8.89251 11.3323C7.93255 11.3323 6.7662 11.669 5.60712 12.0343C6.19373 11.1279 6.69204 10.0077 7.216 8.82971C7.47983 8.23666 7.74525 7.63991 8.02493 7.0594C8.0392 7.03435 8.05183 7.00831 8.0627 6.98132C9.36379 4.30042 10.984 1.98384 14.1866 1.98384C17.3374 1.9838 20.7109 4.12021 20.7109 7.3005C20.7109 11.945 16.1966 12.1803 15.2916 12.1803Z" fill="black"/>
<path d="M13.4904 7.99809C13.3705 7.87821 13.2047 7.80942 13.0349 7.80942C12.8652 7.80942 12.6989 7.87821 12.5791 7.99809C12.4592 8.11798 12.3904 8.28427 12.3904 8.45395C12.3904 8.62368 12.4592 8.78996 12.5791 8.90985C12.6989 9.02973 12.8652 9.09848 13.0349 9.09848C13.2046 9.09848 13.3705 9.02973 13.4904 8.90985C13.6107 8.78996 13.6794 8.62368 13.6794 8.45395C13.6794 8.28427 13.6107 8.11841 13.4904 7.99809Z" fill="black"/>
<path d="M16.5276 5.56612C16.4077 5.44619 16.2415 5.37749 16.0718 5.37749C15.9021 5.37749 15.7361 5.44624 15.6159 5.56612C15.496 5.68648 15.4272 5.85229 15.4272 6.02202C15.4272 6.19174 15.496 6.35803 15.6159 6.47792C15.7362 6.5978 15.9025 6.66655 16.0718 6.66655C16.2415 6.66655 16.4074 6.5978 16.5276 6.47792C16.6475 6.35756 16.7163 6.19174 16.7163 6.02202C16.7163 5.85268 16.6475 5.68643 16.5276 5.56612Z" fill="black"/>
</svg>
